<?xml version="1.0" encoding="utf-8"?>
<!-- Generator: Adobe Illustrator 26.5.0, SVG Export Plug-In . SVG Version: 6.00 Build 0)  -->
<svg version="1.1" xmlns="http://www.w3.org/2000/svg" xmlns:xlink="http://www.w3.org/1999/xlink" x="0px" y="0px"
	 viewBox="0 0 1920 1080" style="enable-background:new 0 0 1920 1080;" xml:space="preserve">
<style type="text/css">
	.st0{fill:#8C6239;}
</style>
<g id="Capa_2">
</g>
<g id="Capa_3">
	<path class="st0" d="M298,812.1c-13.9-18.4-6.3-25,0-27.7c10.2-4.4,24.1-1.6,79-1.3c31.7,0.2,60-0.4,60-0.4
		c48.6-1.1,58.2-3.2,68,0.4c15.8,5.9,16.7,21.2,1,28.1c-9.8,4.4-22.6,3.9-61,4c-49.6,0.1-65.6,1-76,0.9c-16-0.2-29.4-0.6-39-0.9"/>
	<path class="st0" d="M534.8,806.1c-13.9-61.2-6.3-83,0-91.9c10.2-14.5,24.1-5.4,79-4.4c31.7,0.6,60-1.5,60-1.5
		c48.6-3.5,58.2-10.7,68,1.5c15.8,19.6,16.7,70.3,1,93.4c-9.8,14.5-22.6,12.8-61,13.1c-33.9,0.3-30.1,4.2-76,2.9
		c-17.9-0.5-32.6-1.8-42.8-2.9"/>
	<path class="st0" d="M782.7,794.6c-13.9-110.1-6.3-149.4,0-165.4c2.6-6.6,5.4-10.4,9-12.5c9.7-5.6,20.1-0.8,43.7,2.5
		c8.8,1.2,14.8,1.5,26.4,2.1c26.9,1.4,45.3,1,60-2.6c0,0,0,0,0,0c48.6-6.4,58.2-19.3,68,2.6c15.8,35.3,16.7,126.5,1,168.1
		c-9.8,26-22.6,23.1-61,23.6c-33.9,0.5-30.1,7.5-76,5.3c-11.2-0.5-25.8-1.9-42.8-5.2"/>
	<path class="st0" d="M1028.1,797.3c-13.9-88-6.3-119.4,0-132.3c10.2-20.8,24.1-7.8,79-6.3c31.7,0.9,60-2.1,60-2.1
		c48.6-5.1,58.2-15.4,68,2.1c15.8,28.2,16.7,101.2,1,134.4c-9.8,20.8-22.6,18.4-61,18.9c-33.9,0.4-30.1,6-76,4.2
		c-17.9-0.7-32.6-2.6-42.8-4.2"/>
	<path class="st0" d="M1287.3,800.7c-13.9-45.5-6.3-61.8,0-68.4c10.2-10.8,24.1-4,79-3.3c31.7,0.4,60-1.1,60-1.1
		c48.6-2.6,58.2-8,68,1.1c15.8,14.6,16.7,52.3,1,69.5c-9.8,10.8-22.6,9.5-61,9.8c-49.6,0.3-65.6,2.5-76,2.2c-16-0.4-29.4-1.4-39-2.2
		"/>
	
		<image style="overflow:visible;" width="499" height="500" xlink:href="png-transparent-coffee-bean-icon-coffee-bean-cafe-tea-bean-food-logo-monochrome-removebg-preview.png"  transform="matrix(0.2124 0 0 0.2124 832 663)">
	</image>
	
		<image style="overflow:visible;" width="499" height="500" xlink:href="png-transparent-coffee-bean-icon-coffee-bean-cafe-tea-bean-food-logo-monochrome-removebg-preview.png"  transform="matrix(0.1604 0 0 0.1604 1094 701)">
	</image>
	
		<image style="overflow:visible;" width="499" height="500" xlink:href="png-transparent-coffee-bean-icon-coffee-bean-cafe-tea-bean-food-logo-monochrome-removebg-preview.png"  transform="matrix(0.1082 0 0 0.1082 1367 744)">
	</image>
	
		<image style="overflow:visible;" width="499" height="500" xlink:href="png-transparent-coffee-bean-icon-coffee-bean-cafe-tea-bean-food-logo-monochrome-removebg-preview.png"  transform="matrix(0.1162 0 0 0.1162 613.1166 733.1833)">
	</image>
	
		<image style="overflow:visible;" width="499" height="500" xlink:href="png-transparent-coffee-bean-icon-coffee-bean-cafe-tea-bean-food-logo-monochrome-removebg-preview.png"  transform="matrix(5.777237e-02 0 0 5.777237e-02 385 786)">
	</image>
</g>
<g id="Capa_4">
</g>
<g id="Capa_1">
	<g id="mP5w6D.tif">
		
			<image style="overflow:visible;" width="225" height="225" id="Layer_0" xlink:href="73DD8A46C8DF6807.png"  transform="matrix(0.6889 0 0 0.6889 1049 489)">
		</image>
	</g>
	<g id="tjLI1Z.tif">
		
			<image style="overflow:visible;" width="225" height="225" id="Layer_0_00000109020620738444303360000012260385816615582116_" xlink:href="73DD8A46C8DF6805.png"  transform="matrix(0.6844 0 0 0.6844 563.4854 515.5809)">
		</image>
	</g>
	<g id="g70KuF.tif">
		
			<image style="overflow:visible;" width="225" height="225" id="Layer_0_00000159464805623368271830000000544362929965115069_" xlink:href="73DD8A46C8DF680B.png"  transform="matrix(0.7822 0 0 0.7822 1298 544)">
		</image>
	</g>
	<g id="_x35_HzlI1.tif">
		
			<image style="overflow:visible;" width="225" height="225" id="Layer_0_00000012469302754040088640000013956799616576701363_" xlink:href="73DD8A46C8DF680D.png"  transform="matrix(0.6844 0 0 0.6844 812 422)">
		</image>
	</g>
	<g id="oDQxQp.tif">
		
			<image style="overflow:visible;" width="225" height="225" id="Layer_0_00000042733788667784202550000017354360157306468519_" xlink:href="BF04FC3B084A0796.png"  transform="matrix(0.6044 0 0 0.6044 326 616)">
		</image>
	</g>
</g>
</svg>
